<?xml version="1.0" standalone="no"?>
<!DOCTYPE svg PUBLIC "-//W3C//DTD SVG 20010904//EN"
 "http://www.w3.org/TR/2001/REC-SVG-20010904/DTD/svg10.dtd">
<svg version="1.0" xmlns="http://www.w3.org/2000/svg"
 width="960.000000pt" height="720.000000pt" viewBox="0 0 960.000000 720.000000"
 preserveAspectRatio="xMidYMid meet">

<g transform="translate(0.000000,720.000000) scale(0.100000,-0.100000)"
fill="#000000" stroke="none">
<path d="M4537 4000 c-62 -16 -78 -28 -71 -54 4 -16 -12 -65 -49 -152 -72
-168 -151 -366 -192 -480 -31 -86 -32 -93 -18 -123 31 -64 49 -40 119 157 25
69 49 131 55 138 5 6 35 16 66 23 123 24 203 8 245 -51 17 -24 20 -39 15 -83
-7 -66 -26 -105 -80 -157 -56 -55 -129 -88 -193 -88 -42 0 -58 5 -89 30 -43
34 -68 35 -73 3 -4 -27 75 -90 125 -99 86 -16 210 24 275 88 74 75 128 207
114 282 -9 48 -55 99 -114 127 -26 12 -49 24 -51 26 -2 2 24 29 59 61 35 31
81 84 103 117 33 52 38 66 34 102 -6 56 -28 88 -79 114 -48 25 -143 33 -201
19z m200 -96 c14 -22 14 -28 -11 -77 -33 -65 -137 -192 -178 -217 -31 -18
-115 -36 -126 -26 -7 8 40 127 95 243 46 96 49 99 118 105 54 5 86 -4 102 -28z"/>
<path d="M5370 3974 c-29 -9 -63 -12 -96 -9 -47 6 -55 3 -115 -37 -43 -29 -66
-51 -69 -68 -6 -31 -33 -83 -121 -230 -140 -237 -143 -376 -12 -467 51 -35 61
-38 118 -36 140 3 275 52 339 124 64 70 32 96 -50 40 -56 -39 -226 -91 -295
-91 -43 0 -95 25 -115 55 -27 42 -8 175 34 240 9 14 15 16 18 8 10 -22 84 -14
217 22 199 55 223 69 179 108 -17 16 -29 14 -185 -25 -120 -30 -170 -39 -178
-31 -8 8 3 31 39 84 27 41 66 100 86 131 46 69 73 81 233 104 65 9 128 21 141
25 24 9 29 38 10 57 -16 16 -123 14 -178 -4z"/>
</g>
</svg>
